<?xml version="1.0" encoding="UTF-8" standalone="no"?>
<!DOCTYPE svg PUBLIC "-//W3C//DTD SVG 1.1//EN"
 "http://www.w3.org/Graphics/SVG/1.1/DTD/svg11.dtd">
<!-- Generated by graphviz version 12.2.1 (20241206.2353)
 -->
<!-- Title: G Pages: 1 -->
<svg width="957pt" height="783pt"
 viewBox="0.00 0.00 956.78 783.27" xmlns="http://www.w3.org/2000/svg" xmlns:xlink="http://www.w3.org/1999/xlink">
<g id="graph0" class="graph" transform="scale(1 1) rotate(0) translate(4 779.27)">
<title>G</title><style>.edge>path:hover{stroke-width:8}</style>
<polygon fill="white" stroke="none" points="-4,4 -4,-779.27 952.78,-779.27 952.78,4 -4,4"/>
<!-- budman_app_py -->
<g id="node1" class="node">
<title>budman_app_py</title><style>.edge>path:hover{stroke-width:8}</style>
<ellipse fill="#8b4b4b" stroke="black" cx="489.41" cy="-18" rx="51.11" ry="18"/>
<text text-anchor="middle" x="489.41" y="-14.5" font-family="Helvetica,sans-Serif" font-size="10.00" fill="#ffffff">budman_app.py</text>
</g>
<!-- budman_cli_view -->
<g id="node2" class="node">
<title>budman_cli_view</title><style>.edge>path:hover{stroke-width:8}</style>
<polygon fill="blue" stroke="black" points="285.91,-145 194.91,-145 194.91,-109 285.91,-109 285.91,-145"/>
<text text-anchor="middle" x="240.41" y="-123.5" font-family="Helvetica,sans-Serif" font-size="10.00" fill="white">budman_cli_view</text>
</g>
<!-- budman_cli_view&#45;&gt;budman_app_py -->
<g id="edge1" class="edge">
<title>budman_cli_view&#45;&gt;budman_app_py</title><style>.edge>path:hover{stroke-width:8}</style>
<path fill="none" stroke="black" d="M286.23,-120.25C355.93,-110.94 481.39,-91.71 489.41,-73"/>
</g>
<!-- budman_cli_view_budman_cli_parser -->
<g id="node3" class="node">
<title>budman_cli_view_budman_cli_parser</title><style>.edge>path:hover{stroke-width:8}</style>
<ellipse fill="#acac49" stroke="black" cx="86.41" cy="-203.63" rx="69.12" ry="22.63"/>
<text text-anchor="middle" x="86.41" y="-206.13" font-family="Helvetica,sans-Serif" font-size="10.00" fill="#000000">budman_cli_view.</text>
<text text-anchor="middle" x="86.41" y="-194.13" font-family="Helvetica,sans-Serif" font-size="10.00" fill="#000000">budman_cli_parser</text>
</g>
<!-- budman_cli_view_budman_cli_parser&#45;&gt;budman_cli_view -->
<g id="edge2" class="edge">
<title>budman_cli_view_budman_cli_parser&#45;&gt;budman_cli_view</title><style>.edge>path:hover{stroke-width:8}</style>
<path fill="none" stroke="black" d="M124.08,-184.37C145.22,-174.13 171.76,-161.26 194.16,-150.41"/>
<polygon fill="#acac49" stroke="black" points="195.61,-153.6 203.08,-146.09 192.56,-147.3 195.61,-153.6"/>
</g>
<!-- budman_cli_view_budman_cli_view -->
<g id="node4" class="node">
<title>budman_cli_view_budman_cli_view</title><style>.edge>path:hover{stroke-width:8}</style>
<polygon fill="blue" stroke="black" points="267.03,-221.63 173.78,-221.63 173.78,-185.63 267.03,-185.63 267.03,-221.63"/>
<text text-anchor="middle" x="220.41" y="-206.13" font-family="Helvetica,sans-Serif" font-size="10.00" fill="white">budman_cli_view.</text>
<text text-anchor="middle" x="220.41" y="-194.13" font-family="Helvetica,sans-Serif" font-size="10.00" fill="white">budman_cli_view</text>
</g>
<!-- budman_cli_view_budman_cli_view&#45;&gt;budman_cli_view -->
<g id="edge3" class="edge">
<title>budman_cli_view_budman_cli_view&#45;&gt;budman_cli_view</title><style>.edge>path:hover{stroke-width:8}</style>
<path fill="none" stroke="black" d="M225.05,-185.32C227.35,-176.72 230.2,-166.1 232.81,-156.35"/>
<polygon fill="blue" stroke="black" points="236.12,-157.5 235.33,-146.94 229.36,-155.69 236.12,-157.5"/>
</g>
<!-- budman_view_model -->
<g id="node5" class="node">
<title>budman_view_model</title><style>.edge>path:hover{stroke-width:8}</style>
<ellipse fill="#49ac49" stroke="black" cx="489.41" cy="-127" rx="64.64" ry="18"/>
<text text-anchor="middle" x="489.41" y="-123.5" font-family="Helvetica,sans-Serif" font-size="10.00" fill="#000000">budman_view_model</text>
</g>
<!-- budman_view_model&#45;&gt;budman_app_py -->
<g id="edge4" class="edge">
<title>budman_view_model&#45;&gt;budman_app_py</title><style>.edge>path:hover{stroke-width:8}</style>
<path fill="none" stroke="black" d="M486.04,-108.6C484.77,-97.91 484.62,-84.16 489.41,-73"/>
</g>
<!-- budman_view_model_budman_cli_view_datacontext -->
<g id="node6" class="node">
<title>budman_view_model_budman_cli_view_datacontext</title><style>.edge>path:hover{stroke-width:8}</style>
<ellipse fill="#49ac49" stroke="black" cx="389.41" cy="-203.63" rx="104.12" ry="22.63"/>
<text text-anchor="middle" x="389.41" y="-206.13" font-family="Helvetica,sans-Serif" font-size="10.00" fill="#000000">budman_view_model.</text>
<text text-anchor="middle" x="389.41" y="-194.13" font-family="Helvetica,sans-Serif" font-size="10.00" fill="#000000">budman_cli_view_datacontext</text>
</g>
<!-- budman_view_model_budman_cli_view_datacontext&#45;&gt;budman_view_model -->
<g id="edge5" class="edge">
<title>budman_view_model_budman_cli_view_datacontext&#45;&gt;budman_view_model</title><style>.edge>path:hover{stroke-width:8}</style>
<path fill="none" stroke="black" d="M417.8,-181.44C430.53,-171.94 445.57,-160.71 458.58,-151.01"/>
<polygon fill="#49ac49" stroke="black" points="460.49,-153.94 466.41,-145.16 456.31,-148.33 460.49,-153.94"/>
</g>
<!-- budman_view_model_budman_view_model -->
<g id="node7" class="node">
<title>budman_view_model_budman_view_model</title><style>.edge>path:hover{stroke-width:8}</style>
<ellipse fill="#49ac49" stroke="black" cx="589.41" cy="-203.63" rx="78.14" ry="22.63"/>
<text text-anchor="middle" x="589.41" y="-206.13" font-family="Helvetica,sans-Serif" font-size="10.00" fill="#000000">budman_view_model.</text>
<text text-anchor="middle" x="589.41" y="-194.13" font-family="Helvetica,sans-Serif" font-size="10.00" fill="#000000">budman_view_model</text>
</g>
<!-- budman_view_model_budman_view_model&#45;&gt;budman_view_model -->
<g id="edge6" class="edge">
<title>budman_view_model_budman_view_model&#45;&gt;budman_view_model</title><style>.edge>path:hover{stroke-width:8}</style>
<path fill="none" stroke="black" d="M561.82,-182.04C548.98,-172.46 533.65,-161.02 520.41,-151.14"/>
<polygon fill="#49ac49" stroke="black" points="522.53,-148.35 512.42,-145.17 518.34,-153.96 522.53,-148.35"/>
</g>
<!-- dynaconf -->
<g id="node8" class="node">
<title>dynaconf</title><style>.edge>path:hover{stroke-width:8}</style>
<polygon fill="blue" stroke="black" points="788.28,-145 732.53,-145 732.53,-109 788.28,-109 788.28,-145"/>
<text text-anchor="middle" x="760.41" y="-123.5" font-family="Helvetica,sans-Serif" font-size="10.00" fill="white">dynaconf</text>
</g>
<!-- dynaconf&#45;&gt;budman_app_py -->
<g id="edge7" class="edge">
<title>dynaconf&#45;&gt;budman_app_py</title><style>.edge>path:hover{stroke-width:8}</style>
<path fill="none" stroke="black" d="M732.06,-123.3C660.65,-116.13 479.7,-95.67 489.41,-73"/>
</g>
<!-- dynaconf_base -->
<g id="node9" class="node">
<title>dynaconf_base</title><style>.edge>path:hover{stroke-width:8}</style>
<polygon fill="blue" stroke="black" points="811.28,-454.88 731.53,-454.88 731.53,-418.88 811.28,-418.88 811.28,-454.88"/>
<text text-anchor="middle" x="771.41" y="-433.38" font-family="Helvetica,sans-Serif" font-size="10.00" fill="white">dynaconf.base</text>
</g>
<!-- dynaconf_base&#45;&gt;dynaconf -->
<g id="edge8" class="edge">
<title>dynaconf_base&#45;&gt;dynaconf</title><style>.edge>path:hover{stroke-width:8}</style>
<path fill="none" stroke="black" d="M741.41,-359.25C726.38,-325.47 696.6,-321.59 703.41,-285.25"/>
</g>
<!-- dynaconf_hooking -->
<g id="node12" class="node">
<title>dynaconf_hooking</title><style>.edge>path:hover{stroke-width:8}</style>
<polygon fill="blue" stroke="black" points="789.78,-302.25 731.03,-302.25 731.03,-266.25 789.78,-266.25 789.78,-302.25"/>
<text text-anchor="middle" x="760.41" y="-286.75" font-family="Helvetica,sans-Serif" font-size="10.00" fill="white">dynaconf.</text>
<text text-anchor="middle" x="760.41" y="-274.75" font-family="Helvetica,sans-Serif" font-size="10.00" fill="white">hooking</text>
</g>
<!-- dynaconf_base&#45;&gt;dynaconf_hooking -->
<g id="edge9" class="edge">
<title>dynaconf_base&#45;&gt;dynaconf_hooking</title><style>.edge>path:hover{stroke-width:8}</style>
<path fill="none" stroke="black" d="M741.41,-359.25C734.84,-344.48 738.83,-326.99 744.82,-312.73"/>
<polygon fill="blue" stroke="black" points="747.88,-314.45 749,-303.92 741.56,-311.45 747.88,-314.45"/>
</g>
<!-- dynaconf_utils -->
<g id="node13" class="node">
<title>dynaconf_utils</title><style>.edge>path:hover{stroke-width:8}</style>
<polygon fill="blue" stroke="black" points="845.78,-378.25 769.03,-378.25 769.03,-342.25 845.78,-342.25 845.78,-378.25"/>
<text text-anchor="middle" x="807.41" y="-356.75" font-family="Helvetica,sans-Serif" font-size="10.00" fill="white">dynaconf.utils</text>
</g>
<!-- dynaconf_base&#45;&gt;dynaconf_utils -->
<g id="edge10" class="edge">
<title>dynaconf_base&#45;&gt;dynaconf_utils</title><style>.edge>path:hover{stroke-width:8}</style>
<path fill="none" stroke="black" d="M784.69,-408.36C787.75,-402.01 791.01,-395.25 794.07,-388.9"/>
<polygon fill="blue" stroke="black" points="781.61,-406.68 780.41,-417.21 787.91,-409.72 781.61,-406.68"/>
<polygon fill="blue" stroke="black" points="797.13,-390.62 798.32,-380.09 790.82,-387.58 797.13,-390.62"/>
</g>
<!-- dynaconf_utils_inspect -->
<g id="node14" class="node">
<title>dynaconf_utils_inspect</title><style>.edge>path:hover{stroke-width:8}</style>
<polygon fill="blue" stroke="black" points="675.78,-306.25 617.03,-306.25 617.03,-262.25 675.78,-262.25 675.78,-306.25"/>
<text text-anchor="middle" x="646.41" y="-292.75" font-family="Helvetica,sans-Serif" font-size="10.00" fill="white">dynaconf.</text>
<text text-anchor="middle" x="646.41" y="-280.75" font-family="Helvetica,sans-Serif" font-size="10.00" fill="white">utils.</text>
<text text-anchor="middle" x="646.41" y="-268.75" font-family="Helvetica,sans-Serif" font-size="10.00" fill="white">inspect</text>
</g>
<!-- dynaconf_base&#45;&gt;dynaconf_utils_inspect -->
<g id="edge11" class="edge">
<title>dynaconf_base&#45;&gt;dynaconf_utils_inspect</title><style>.edge>path:hover{stroke-width:8}</style>
<path fill="none" stroke="black" d="M764.85,-418.54C758.99,-403.32 750.03,-380.65 741.41,-361.25"/>
<path fill="none" stroke="black" d="M741.41,-359.25C735.62,-346.24 709.09,-326.12 685.53,-310.15"/>
<polygon fill="blue" stroke="black" points="687.55,-307.28 677.29,-304.65 683.66,-313.11 687.55,-307.28"/>
</g>
<!-- dynaconf_validator -->
<g id="node16" class="node">
<title>dynaconf_validator</title><style>.edge>path:hover{stroke-width:8}</style>
<polygon fill="blue" stroke="black" points="903.78,-302.25 845.03,-302.25 845.03,-266.25 903.78,-266.25 903.78,-302.25"/>
<text text-anchor="middle" x="874.41" y="-286.75" font-family="Helvetica,sans-Serif" font-size="10.00" fill="white">dynaconf.</text>
<text text-anchor="middle" x="874.41" y="-274.75" font-family="Helvetica,sans-Serif" font-size="10.00" fill="white">validator</text>
</g>
<!-- dynaconf_base&#45;&gt;dynaconf_validator -->
<g id="edge12" class="edge">
<title>dynaconf_base&#45;&gt;dynaconf_validator</title><style>.edge>path:hover{stroke-width:8}</style>
<path fill="none" stroke="black" d="M817.61,-412.65C831.33,-403.65 845.16,-392.13 854.41,-378.25 867.15,-359.14 871.95,-333.33 873.67,-313.75"/>
<polygon fill="blue" stroke="black" points="816.13,-409.44 809.46,-417.67 819.81,-415.4 816.13,-409.44"/>
<polygon fill="blue" stroke="black" points="877.15,-314.2 874.3,-303.99 870.17,-313.75 877.15,-314.2"/>
</g>
<!-- dynaconf_constants -->
<g id="node10" class="node">
<title>dynaconf_constants</title><style>.edge>path:hover{stroke-width:8}</style>
<ellipse fill="#53b6b6" stroke="black" cx="830.41" cy="-203.63" rx="41.54" ry="22.63"/>
<text text-anchor="middle" x="830.41" y="-206.13" font-family="Helvetica,sans-Serif" font-size="10.00" fill="#000000">dynaconf.</text>
<text text-anchor="middle" x="830.41" y="-194.13" font-family="Helvetica,sans-Serif" font-size="10.00" fill="#000000">constants</text>
</g>
<!-- dynaconf_constants&#45;&gt;dynaconf -->
<g id="edge13" class="edge">
<title>dynaconf_constants&#45;&gt;dynaconf</title><style>.edge>path:hover{stroke-width:8}</style>
<path fill="none" stroke="black" d="M812.01,-183.02C803.64,-174.09 793.62,-163.41 784.64,-153.83"/>
<polygon fill="#53b6b6" stroke="black" points="787.2,-151.44 777.8,-146.54 782.09,-156.23 787.2,-151.44"/>
</g>
<!-- dynaconf_contrib -->
<g id="node11" class="node">
<title>dynaconf_contrib</title><style>.edge>path:hover{stroke-width:8}</style>
<polygon fill="blue" stroke="black" points="948.78,-221.63 890.03,-221.63 890.03,-185.63 948.78,-185.63 948.78,-221.63"/>
<text text-anchor="middle" x="919.41" y="-206.13" font-family="Helvetica,sans-Serif" font-size="10.00" fill="white">dynaconf.</text>
<text text-anchor="middle" x="919.41" y="-194.13" font-family="Helvetica,sans-Serif" font-size="10.00" fill="white">contrib</text>
</g>
<!-- dynaconf_contrib&#45;&gt;dynaconf -->
<g id="edge14" class="edge">
<title>dynaconf_contrib&#45;&gt;dynaconf</title><style>.edge>path:hover{stroke-width:8}</style>
<path fill="none" stroke="black" d="M889.7,-185.33C886.91,-183.83 884.12,-182.36 881.41,-181 854.39,-167.44 823.11,-153.79 799.13,-143.74"/>
<polygon fill="blue" stroke="black" points="800.64,-140.58 790.06,-139.97 797.95,-147.04 800.64,-140.58"/>
</g>
<!-- dynaconf_hooking&#45;&gt;dynaconf -->
<g id="edge15" class="edge">
<title>dynaconf_hooking&#45;&gt;dynaconf</title><style>.edge>path:hover{stroke-width:8}</style>
<path fill="none" stroke="black" d="M760.41,-265.77C760.41,-249.83 760.41,-225.65 760.41,-204.63"/>
</g>
<!-- dynaconf_utils&#45;&gt;dynaconf -->
<g id="edge16" class="edge">
<title>dynaconf_utils&#45;&gt;dynaconf</title><style>.edge>path:hover{stroke-width:8}</style>
<path fill="none" stroke="black" d="M808.29,-341.9C808.74,-322.06 807.77,-288.9 798.41,-262.25 788.24,-233.31 760.41,-235.31 760.41,-204.63"/>
</g>
<!-- dynaconf_utils&#45;&gt;dynaconf_validator -->
<g id="edge18" class="edge">
<title>dynaconf_utils&#45;&gt;dynaconf_validator</title><style>.edge>path:hover{stroke-width:8}</style>
<path fill="none" stroke="black" d="M822.95,-342.09C831.34,-332.82 841.87,-321.19 851.22,-310.86"/>
<polygon fill="blue" stroke="black" points="853.59,-313.47 857.7,-303.7 848.4,-308.77 853.59,-313.47"/>
</g>
<!-- dynaconf_utils_inspect&#45;&gt;dynaconf -->
<g id="edge19" class="edge">
<title>dynaconf_utils_inspect&#45;&gt;dynaconf</title><style>.edge>path:hover{stroke-width:8}</style>
<path fill="none" stroke="black" d="M760.41,-202.63C760.41,-187.5 760.41,-170.64 760.41,-156.78"/>
<polygon fill="blue" stroke="black" points="763.91,-157 760.41,-147 756.91,-157 763.91,-157"/>
<path fill="none" stroke="black" d="M676.06,-266.23C709.84,-246.35 760.41,-214.88 760.41,-204.63"/>
</g>
<!-- dynaconf_utils_parse_conf -->
<g id="node15" class="node">
<title>dynaconf_utils_parse_conf</title><style>.edge>path:hover{stroke-width:8}</style>
<polygon fill="blue" stroke="black" points="735.41,-621.39 671.41,-621.39 671.41,-577.39 735.41,-577.39 735.41,-621.39"/>
<text text-anchor="middle" x="703.41" y="-607.89" font-family="Helvetica,sans-Serif" font-size="10.00" fill="white">dynaconf.</text>
<text text-anchor="middle" x="703.41" y="-595.89" font-family="Helvetica,sans-Serif" font-size="10.00" fill="white">utils.</text>
<text text-anchor="middle" x="703.41" y="-583.89" font-family="Helvetica,sans-Serif" font-size="10.00" fill="white">parse_conf</text>
</g>
<!-- dynaconf_utils_parse_conf&#45;&gt;dynaconf -->
<g id="edge20" class="edge">
<title>dynaconf_utils_parse_conf&#45;&gt;dynaconf</title><style>.edge>path:hover{stroke-width:8}</style>
<path fill="none" stroke="black" d="M703.41,-359.25C695.02,-327.45 697.35,-317.58 703.41,-285.25"/>
<path fill="none" stroke="black" d="M703.41,-283.25C711.35,-240.83 759.62,-247.78 760.41,-204.63"/>
</g>
<!-- dynaconf_utils_parse_conf&#45;&gt;dynaconf_base -->
<g id="edge21" class="edge">
<title>dynaconf_utils_parse_conf&#45;&gt;dynaconf_base</title><style>.edge>path:hover{stroke-width:8}</style>
<path fill="none" stroke="black" d="M703.41,-517.14C711.01,-496.2 726.98,-477.1 741.54,-462.9"/>
<polygon fill="blue" stroke="black" points="743.84,-465.54 748.76,-456.16 739.06,-460.42 743.84,-465.54"/>
</g>
<!-- dynaconf_utils_parse_conf&#45;&gt;dynaconf_utils_inspect -->
<g id="edge22" class="edge">
<title>dynaconf_utils_parse_conf&#45;&gt;dynaconf_utils_inspect</title><style>.edge>path:hover{stroke-width:8}</style>
<path fill="none" stroke="black" d="M699.56,-577.19C697.5,-560.83 696.6,-537.89 703.41,-519.14"/>
<path fill="none" stroke="black" d="M703.41,-359.25C700.37,-342.53 690.27,-327.1 679.39,-314.7"/>
<polygon fill="blue" stroke="black" points="682.25,-312.63 672.85,-307.73 677.14,-317.42 682.25,-312.63"/>
<path fill="none" stroke="black" d="M703.41,-517.14C727.06,-452.02 715.77,-429.42 703.41,-361.25"/>
</g>
<!-- dynaconf_utils_parse_conf&#45;&gt;dynaconf_validator -->
<g id="edge23" class="edge">
<title>dynaconf_utils_parse_conf&#45;&gt;dynaconf_validator</title><style>.edge>path:hover{stroke-width:8}</style>
<path fill="none" stroke="black" d="M703.41,-517.14C723.97,-462.94 776.7,-497.59 820.41,-459.51 853.29,-430.86 862.62,-419.95 875.41,-378.25 881.81,-357.36 881.17,-332.56 879.13,-313.83"/>
<polygon fill="blue" stroke="black" points="882.61,-313.46 877.85,-304 875.67,-314.37 882.61,-313.46"/>
</g>
<!-- dynaconf_validator&#45;&gt;dynaconf -->
<g id="edge24" class="edge">
<title>dynaconf_validator&#45;&gt;dynaconf</title><style>.edge>path:hover{stroke-width:8}</style>
<path fill="none" stroke="black" d="M844.6,-268.47C825.05,-258.05 799.49,-243.01 779.41,-226.25 769.58,-218.06 760.41,-217.42 760.41,-204.63"/>
</g>
<!-- p3_utils -->
<g id="node17" class="node">
<title>p3_utils</title><style>.edge>path:hover{stroke-width:8}</style>
<polygon fill="blue" stroke="black" points="380.41,-694.02 326.41,-694.02 326.41,-658.02 380.41,-658.02 380.41,-694.02"/>
<text text-anchor="middle" x="353.41" y="-672.52" font-family="Helvetica,sans-Serif" font-size="10.00" fill="white">p3_utils</text>
</g>
<!-- p3_utils&#45;&gt;budman_app_py -->
<g id="edge26" class="edge">
<title>p3_utils&#45;&gt;budman_app_py</title><style>.edge>path:hover{stroke-width:8}</style>
<path fill="none" stroke="black" d="M589.41,-283.25C587.09,-270.88 598.47,-269.98 608.41,-262.25 635.4,-241.26 658.77,-255.55 676.41,-226.25 686.78,-209.02 686.08,-198.63 676.41,-181 647.77,-128.79 615.38,-138.07 563.41,-109 531.49,-91.14 475.81,-106.95 489.41,-73"/>
</g>
<!-- p3_utils&#45;&gt;budman_cli_view_budman_cli_parser -->
<g id="edge27" class="edge">
<title>p3_utils&#45;&gt;budman_cli_view_budman_cli_parser</title><style>.edge>path:hover{stroke-width:8}</style>
<path fill="none" stroke="black" d="M159.41,-598.39C147.59,-565.21 157.36,-554.3 159.41,-519.14"/>
<path fill="none" stroke="black" d="M325.96,-675.58C278.13,-674.81 182.41,-664.98 159.41,-600.39"/>
<path fill="none" stroke="black" d="M159.41,-517.14C162.61,-462.19 117.39,-305.92 96.58,-237.45"/>
<polygon fill="blue" stroke="black" points="99.94,-236.47 93.67,-227.93 93.25,-238.52 99.94,-236.47"/>
</g>
<!-- p3_utils&#45;&gt;budman_cli_view_budman_cli_view -->
<g id="edge28" class="edge">
<title>p3_utils&#45;&gt;budman_cli_view_budman_cli_view</title><style>.edge>path:hover{stroke-width:8}</style>
<path fill="none" stroke="black" d="M589.41,-359.25C587.48,-351.07 377.33,-266.79 275.07,-226.22"/>
<polygon fill="blue" stroke="black" points="276.63,-223.07 266.04,-222.64 274.05,-229.58 276.63,-223.07"/>
<path fill="none" stroke="black" d="M589.41,-598.39C616.93,-496.65 632.36,-457.5 589.41,-361.25"/>
</g>
<!-- p3_utils&#45;&gt;budman_view_model_budman_cli_view_datacontext -->
<g id="edge29" class="edge">
<title>p3_utils&#45;&gt;budman_view_model_budman_cli_view_datacontext</title><style>.edge>path:hover{stroke-width:8}</style>
<path fill="none" stroke="black" d="M589.41,-283.25C584.63,-257.79 526.18,-236.82 473.7,-222.95"/>
<polygon fill="blue" stroke="black" points="474.63,-219.58 464.08,-220.48 472.89,-226.36 474.63,-219.58"/>
<path fill="none" stroke="black" d="M589.41,-359.25C581.85,-327.25 595.47,-317.58 589.41,-285.25"/>
</g>
<!-- p3_utils&#45;&gt;budman_view_model_budman_view_model -->
<g id="edge30" class="edge">
<title>p3_utils&#45;&gt;budman_view_model_budman_view_model</title><style>.edge>path:hover{stroke-width:8}</style>
<path fill="none" stroke="black" d="M589.41,-283.25C586.64,-268.48 586.25,-251.86 586.71,-237.72"/>
<polygon fill="blue" stroke="black" points="590.19,-238.19 587.19,-228.03 583.2,-237.85 590.19,-238.19"/>
</g>
<!-- p3logging_p3logging_config -->
<g id="node23" class="node">
<title>p3logging_p3logging_config</title><style>.edge>path:hover{stroke-width:8}</style>
<ellipse fill="#b83db8" stroke="black" cx="250.41" cy="-518.14" rx="62.76" ry="22.63"/>
<text text-anchor="middle" x="250.41" y="-520.64" font-family="Helvetica,sans-Serif" font-size="10.00" fill="#ffffff">p3logging.</text>
<text text-anchor="middle" x="250.41" y="-508.64" font-family="Helvetica,sans-Serif" font-size="10.00" fill="#ffffff">p3logging_config</text>
</g>
<!-- p3_utils&#45;&gt;p3logging_p3logging_config -->
<g id="edge31" class="edge">
<title>p3_utils&#45;&gt;p3logging_p3logging_config</title><style>.edge>path:hover{stroke-width:8}</style>
<path fill="none" stroke="black" d="M159.41,-598.39C150.47,-573.3 172.85,-553.59 197.65,-540.1"/>
<polygon fill="blue" stroke="black" points="198.9,-543.38 206.23,-535.74 195.73,-537.14 198.9,-543.38"/>
</g>
<!-- p3logging_p3logging_formatters -->
<g id="node25" class="node">
<title>p3logging_p3logging_formatters</title><style>.edge>path:hover{stroke-width:8}</style>
<ellipse fill="#ac49ac" stroke="black" cx="444.41" cy="-518.14" rx="75.48" ry="22.63"/>
<text text-anchor="middle" x="444.41" y="-520.64" font-family="Helvetica,sans-Serif" font-size="10.00" fill="#ffffff">p3logging.</text>
<text text-anchor="middle" x="444.41" y="-508.64" font-family="Helvetica,sans-Serif" font-size="10.00" fill="#ffffff">p3logging_formatters</text>
</g>
<!-- p3_utils&#45;&gt;p3logging_p3logging_formatters -->
<g id="edge32" class="edge">
<title>p3_utils&#45;&gt;p3logging_p3logging_formatters</title><style>.edge>path:hover{stroke-width:8}</style>
<path fill="none" stroke="black" d="M380.73,-671.82C440.45,-664.09 578.19,-641.87 589.41,-600.39"/>
<path fill="none" stroke="black" d="M589.41,-598.39C599.13,-562.45 561.72,-542.58 522.47,-531.72"/>
<polygon fill="blue" stroke="black" points="523.41,-528.35 512.85,-529.27 521.68,-535.13 523.41,-528.35"/>
</g>
<!-- p3logging_p3logging_info -->
<g id="node26" class="node">
<title>p3logging_p3logging_info</title><style>.edge>path:hover{stroke-width:8}</style>
<ellipse fill="#a446a4" stroke="black" cx="229.41" cy="-436.88" rx="55.33" ry="22.63"/>
<text text-anchor="middle" x="229.41" y="-439.38" font-family="Helvetica,sans-Serif" font-size="10.00" fill="#ffffff">p3logging.</text>
<text text-anchor="middle" x="229.41" y="-427.38" font-family="Helvetica,sans-Serif" font-size="10.00" fill="#ffffff">p3logging_info</text>
</g>
<!-- p3_utils&#45;&gt;p3logging_p3logging_info -->
<g id="edge33" class="edge">
<title>p3_utils&#45;&gt;p3logging_p3logging_info</title><style>.edge>path:hover{stroke-width:8}</style>
<path fill="none" stroke="black" d="M159.41,-517.14C160.66,-495.64 175.46,-477.21 191.12,-463.54"/>
<polygon fill="blue" stroke="black" points="193.12,-466.43 198.66,-457.41 188.7,-461 193.12,-466.43"/>
</g>
<!-- p3_utils_p3_common_utils -->
<g id="node18" class="node">
<title>p3_utils_p3_common_utils</title><style>.edge>path:hover{stroke-width:8}</style>
<polygon fill="blue" stroke="black" points="247.66,-770.65 155.16,-770.65 155.16,-734.65 247.66,-734.65 247.66,-770.65"/>
<text text-anchor="middle" x="201.41" y="-755.15" font-family="Helvetica,sans-Serif" font-size="10.00" fill="white">p3_utils.</text>
<text text-anchor="middle" x="201.41" y="-743.15" font-family="Helvetica,sans-Serif" font-size="10.00" fill="white">p3_common_utils</text>
</g>
<!-- p3_utils_p3_common_utils&#45;&gt;p3_utils -->
<g id="edge34" class="edge">
<title>p3_utils_p3_common_utils&#45;&gt;p3_utils</title><style>.edge>path:hover{stroke-width:8}</style>
<path fill="none" stroke="black" d="M237.04,-734.15C260.74,-722.52 291.81,-707.26 315.88,-695.44"/>
<polygon fill="blue" stroke="black" points="317.27,-698.66 324.7,-691.11 314.19,-692.38 317.27,-698.66"/>
</g>
<!-- p3_utils_p3_excel_utils -->
<g id="node19" class="node">
<title>p3_utils_p3_excel_utils</title><style>.edge>path:hover{stroke-width:8}</style>
<polygon fill="blue" stroke="black" points="343.53,-770.65 265.28,-770.65 265.28,-734.65 343.53,-734.65 343.53,-770.65"/>
<text text-anchor="middle" x="304.41" y="-755.15" font-family="Helvetica,sans-Serif" font-size="10.00" fill="white">p3_utils.</text>
<text text-anchor="middle" x="304.41" y="-743.15" font-family="Helvetica,sans-Serif" font-size="10.00" fill="white">p3_excel_utils</text>
</g>
<!-- p3_utils_p3_excel_utils&#45;&gt;p3_utils -->
<g id="edge35" class="edge">
<title>p3_utils_p3_excel_utils&#45;&gt;p3_utils</title><style>.edge>path:hover{stroke-width:8}</style>
<path fill="none" stroke="black" d="M315.77,-734.34C321.67,-725.36 329,-714.19 335.63,-704.1"/>
<polygon fill="blue" stroke="black" points="338.54,-706.04 341.1,-695.76 332.69,-702.2 338.54,-706.04"/>
</g>
<!-- p3_utils_p3_helper_utils -->
<g id="node20" class="node">
<title>p3_utils_p3_helper_utils</title><style>.edge>path:hover{stroke-width:8}</style>
<polygon fill="blue" stroke="black" points="443.03,-770.65 361.78,-770.65 361.78,-734.65 443.03,-734.65 443.03,-770.65"/>
<text text-anchor="middle" x="402.41" y="-755.15" font-family="Helvetica,sans-Serif" font-size="10.00" fill="white">p3_utils.</text>
<text text-anchor="middle" x="402.41" y="-743.15" font-family="Helvetica,sans-Serif" font-size="10.00" fill="white">p3_helper_utils</text>
</g>
<!-- p3_utils_p3_helper_utils&#45;&gt;p3_utils -->
<g id="edge36" class="edge">
<title>p3_utils_p3_helper_utils&#45;&gt;p3_utils</title><style>.edge>path:hover{stroke-width:8}</style>
<path fill="none" stroke="black" d="M391.04,-734.34C385.15,-725.36 377.81,-714.19 371.19,-704.1"/>
<polygon fill="blue" stroke="black" points="374.12,-702.2 365.71,-695.76 368.27,-706.04 374.12,-702.2"/>
</g>
<!-- p3_utils_p3_print_output_utils -->
<g id="node21" class="node">
<title>p3_utils_p3_print_output_utils</title><style>.edge>path:hover{stroke-width:8}</style>
<ellipse fill="#5353b6" stroke="black" cx="536.41" cy="-752.65" rx="74.95" ry="22.63"/>
<text text-anchor="middle" x="536.41" y="-755.15" font-family="Helvetica,sans-Serif" font-size="10.00" fill="#ffffff">p3_utils.</text>
<text text-anchor="middle" x="536.41" y="-743.15" font-family="Helvetica,sans-Serif" font-size="10.00" fill="#ffffff">p3_print_output_utils</text>
</g>
<!-- p3_utils_p3_print_output_utils&#45;&gt;p3_utils -->
<g id="edge37" class="edge">
<title>p3_utils_p3_print_output_utils&#45;&gt;p3_utils</title><style>.edge>path:hover{stroke-width:8}</style>
<path fill="none" stroke="black" d="M493.04,-733.96C462.07,-721.33 420.81,-704.51 391.19,-692.43"/>
<polygon fill="#5353b6" stroke="black" points="392.83,-689.31 382.24,-688.78 390.18,-695.8 392.83,-689.31"/>
</g>
<!-- p3logging -->
<g id="node22" class="node">
<title>p3logging</title><style>.edge>path:hover{stroke-width:8}</style>
<ellipse fill="#ca16ca" stroke="black" cx="229.41" cy="-360.25" rx="34.43" ry="18"/>
<text text-anchor="middle" x="229.41" y="-356.75" font-family="Helvetica,sans-Serif" font-size="10.00" fill="#ffffff">p3logging</text>
</g>
<!-- p3logging&#45;&gt;budman_app_py -->
<g id="edge38" class="edge">
<title>p3logging&#45;&gt;budman_app_py</title><style>.edge>path:hover{stroke-width:8}</style>
<path fill="none" stroke="black" d="M146.41,-283.25C129.07,-219.2 45.3,-281.41 8.41,-226.25 -2.78,-209.54 -2.82,-197.69 8.41,-181 55.81,-110.54 103.17,-130.18 185.41,-109 251.28,-92.03 462.62,-135.53 489.41,-73"/>
<path fill="none" stroke="black" d="M489.41,-72C492.44,-64.42 493.37,-55.74 493.29,-47.62"/>
<polygon fill="#ca16ca" stroke="black" points="496.8,-47.59 492.68,-37.83 489.81,-48.03 496.8,-47.59"/>
<path fill="none" stroke="black" d="M204.63,-347.58C182.91,-335.57 153.67,-314.48 146.41,-285.25"/>
</g>
<!-- p3logging&#45;&gt;budman_cli_view_budman_cli_parser -->
<g id="edge39" class="edge">
<title>p3logging&#45;&gt;budman_cli_view_budman_cli_parser</title><style>.edge>path:hover{stroke-width:8}</style>
<path fill="none" stroke="black" d="M146.41,-283.25C141.4,-264.76 129.36,-247.46 117.37,-233.81"/>
<polygon fill="#ca16ca" stroke="black" points="119.97,-231.47 110.6,-226.51 114.84,-236.22 119.97,-231.47"/>
</g>
<!-- p3logging&#45;&gt;budman_cli_view_budman_cli_view -->
<g id="edge40" class="edge">
<title>p3logging&#45;&gt;budman_cli_view_budman_cli_view</title><style>.edge>path:hover{stroke-width:8}</style>
<path fill="none" stroke="black" d="M146.41,-283.25C140.39,-261.02 157.2,-242.01 176.31,-228.26"/>
<polygon fill="#ca16ca" stroke="black" points="178.15,-231.24 184.53,-222.78 174.27,-225.42 178.15,-231.24"/>
</g>
<!-- p3logging&#45;&gt;budman_view_model_budman_cli_view_datacontext -->
<g id="edge41" class="edge">
<title>p3logging&#45;&gt;budman_view_model_budman_cli_view_datacontext</title><style>.edge>path:hover{stroke-width:8}</style>
<path fill="none" stroke="black" d="M146.41,-283.25C141.85,-266.41 234.78,-240.55 307.03,-223.13"/>
<polygon fill="#ca16ca" stroke="black" points="307.59,-226.6 316.5,-220.87 305.96,-219.79 307.59,-226.6"/>
</g>
<!-- p3logging&#45;&gt;budman_view_model_budman_view_model -->
<g id="edge42" class="edge">
<title>p3logging&#45;&gt;budman_view_model_budman_view_model</title><style>.edge>path:hover{stroke-width:8}</style>
<path fill="none" stroke="black" d="M255.59,-348.01C314.51,-322.7 458.48,-260.86 536.71,-227.26"/>
<polygon fill="#ca16ca" stroke="black" points="537.64,-230.67 545.45,-223.51 534.88,-224.24 537.64,-230.67"/>
</g>
<!-- p3logging_p3logging_config&#45;&gt;p3logging -->
<g id="edge43" class="edge">
<title>p3logging_p3logging_config&#45;&gt;p3logging</title><style>.edge>path:hover{stroke-width:8}</style>
<path fill="none" stroke="black" d="M210.19,-500.43C193.14,-491.09 175.01,-477.62 165.41,-459.51 155.99,-441.74 156.85,-432.46 165.41,-414.25 171.95,-400.35 184.12,-388.84 196.12,-380.14"/>
<polygon fill="#b83db8" stroke="black" points="197.98,-383.1 204.33,-374.62 194.08,-377.29 197.98,-383.1"/>
</g>
<!-- p3logging_p3logging_config&#45;&gt;p3logging_p3logging_info -->
<g id="edge44" class="edge">
<title>p3logging_p3logging_config&#45;&gt;p3logging_p3logging_info</title><style>.edge>path:hover{stroke-width:8}</style>
<path fill="none" stroke="black" d="M244.67,-495.48C242.65,-487.86 240.33,-479.1 238.12,-470.76"/>
<polygon fill="#b83db8" stroke="black" points="241.54,-470.02 235.6,-461.25 234.78,-471.81 241.54,-470.02"/>
</g>
<!-- p3logging_p3logging_constants -->
<g id="node24" class="node">
<title>p3logging_p3logging_constants</title><style>.edge>path:hover{stroke-width:8}</style>
<ellipse fill="#db2fdb" stroke="black" cx="341.41" cy="-599.39" rx="74.42" ry="22.63"/>
<text text-anchor="middle" x="341.41" y="-601.89" font-family="Helvetica,sans-Serif" font-size="10.00" fill="#ffffff">p3logging.</text>
<text text-anchor="middle" x="341.41" y="-589.89" font-family="Helvetica,sans-Serif" font-size="10.00" fill="#ffffff">p3logging_constants</text>
</g>
<!-- p3logging_p3logging_constants&#45;&gt;p3logging -->
<g id="edge45" class="edge">
<title>p3logging_p3logging_constants&#45;&gt;p3logging</title><style>.edge>path:hover{stroke-width:8}</style>
<path fill="none" stroke="black" d="M341.41,-517.14C330.94,-483.5 365.87,-463.22 341.41,-437.88"/>
<path fill="none" stroke="black" d="M341.41,-435.88C318.65,-412.31 287.21,-392.17 263.43,-378.77"/>
<polygon fill="#db2fdb" stroke="black" points="265.21,-375.75 254.76,-374.01 261.84,-381.89 265.21,-375.75"/>
</g>
<!-- p3logging_p3logging_constants&#45;&gt;p3logging_p3logging_config -->
<g id="edge46" class="edge">
<title>p3logging_p3logging_constants&#45;&gt;p3logging_p3logging_config</title><style>.edge>path:hover{stroke-width:8}</style>
<path fill="none" stroke="black" d="M317.5,-577.57C306.75,-568.21 293.92,-557.04 282.37,-546.97"/>
<polygon fill="#db2fdb" stroke="black" points="284.82,-544.47 274.98,-540.54 280.23,-549.75 284.82,-544.47"/>
</g>
<!-- p3logging_p3logging_constants&#45;&gt;p3logging_p3logging_formatters -->
<g id="edge47" class="edge">
<title>p3logging_p3logging_constants&#45;&gt;p3logging_p3logging_formatters</title><style>.edge>path:hover{stroke-width:8}</style>
<path fill="none" stroke="black" d="M367.93,-577.98C380.33,-568.44 395.28,-556.94 408.65,-546.65"/>
<polygon fill="#db2fdb" stroke="black" points="410.62,-549.55 416.41,-540.68 406.35,-544 410.62,-549.55"/>
</g>
<!-- p3logging_p3logging_constants&#45;&gt;p3logging_p3logging_info -->
<g id="edge48" class="edge">
<title>p3logging_p3logging_constants&#45;&gt;p3logging_p3logging_info</title><style>.edge>path:hover{stroke-width:8}</style>
<path fill="none" stroke="black" d="M344.86,-576.34C346.58,-560.14 347.21,-537.79 341.41,-519.14"/>
<path fill="none" stroke="black" d="M341.41,-517.14C332.67,-489.05 306.3,-469.62 281.34,-457.03"/>
<polygon fill="#db2fdb" stroke="black" points="283.06,-453.97 272.52,-452.86 280.07,-460.3 283.06,-453.97"/>
</g>
<!-- p3logging_p3logging_formatters&#45;&gt;p3logging -->
<g id="edge49" class="edge">
<title>p3logging_p3logging_formatters&#45;&gt;p3logging</title><style>.edge>path:hover{stroke-width:8}</style>
<path fill="none" stroke="black" d="M413.64,-497.06C392.09,-482.18 363.35,-460.61 341.41,-437.88"/>
</g>
<!-- p3logging_p3logging_info&#45;&gt;p3logging -->
<g id="edge50" class="edge">
<title>p3logging_p3logging_info&#45;&gt;p3logging</title><style>.edge>path:hover{stroke-width:8}</style>
<path fill="none" stroke="black" d="M229.41,-413.9C229.41,-406.36 229.41,-397.81 229.41,-389.83"/>
<polygon fill="#a446a4" stroke="black" points="232.91,-389.87 229.41,-379.87 225.91,-389.87 232.91,-389.87"/>
</g>
</g>
</svg>
