<?xml version="1.0" encoding="UTF-8" standalone="no"?>
<!DOCTYPE svg PUBLIC "-//W3C//DTD SVG 1.1//EN"
 "http://www.w3.org/Graphics/SVG/1.1/DTD/svg11.dtd">
<!-- Generated by graphviz version 12.2.1 (20241206.2353)
 -->
<!-- Title: G Pages: 1 -->
<svg width="1236pt" height="747pt"
 viewBox="0.00 0.00 1235.62 746.75" xmlns="http://www.w3.org/2000/svg" xmlns:xlink="http://www.w3.org/1999/xlink">
<g id="graph0" class="graph" transform="scale(1 1) rotate(0) translate(4 742.75)">
<title>G</title><style>.edge>path:hover{stroke-width:8}</style>
<polygon fill="white" stroke="none" points="-4,4 -4,-742.75 1231.62,-742.75 1231.62,4 -4,4"/>
<!-- budman_app -->
<g id="node1" class="node">
<title>budman_app</title><style>.edge>path:hover{stroke-width:8}</style>
<ellipse fill="#db2f2f" stroke="black" cx="352.07" cy="-356.13" rx="43" ry="18"/>
<text text-anchor="middle" x="352.07" y="-352.63" font-family="Helvetica,sans-Serif" font-size="10.00" fill="#ffffff">budman_app</text>
</g>
<!-- budman_model_budget_domain_model -->
<g id="node4" class="node">
<title>budman_model_budget_domain_model</title><style>.edge>path:hover{stroke-width:8}</style>
<ellipse fill="#938324" stroke="black" cx="717.07" cy="-185.14" rx="80.26" ry="22.63"/>
<text text-anchor="middle" x="717.07" y="-187.64" font-family="Helvetica,sans-Serif" font-size="10.00" fill="#ffffff">budman_model.</text>
<text text-anchor="middle" x="717.07" y="-175.64" font-family="Helvetica,sans-Serif" font-size="10.00" fill="#ffffff">budget_domain_model</text>
</g>
<!-- budman_app&#45;&gt;budman_model_budget_domain_model -->
<g id="edge1" class="edge">
<title>budman_app&#45;&gt;budman_model_budget_domain_model</title><style>.edge>path:hover{stroke-width:8}</style>
<path fill="none" stroke="black" d="M609.07,-265.39C621.25,-257.79 621.79,-252.65 633.07,-243.76 646.73,-233 662.29,-222.01 676.27,-212.55"/>
<polygon fill="#db2f2f" stroke="black" points="678.03,-215.58 684.4,-207.1 674.14,-209.76 678.03,-215.58"/>
<path fill="none" stroke="black" d="M386.94,-345.37C447.92,-327.96 571.08,-291.12 609.07,-267.39"/>
</g>
<!-- budman_model_budget_domain_model_config -->
<g id="node5" class="node">
<title>budman_model_budget_domain_model_config</title><style>.edge>path:hover{stroke-width:8}</style>
<ellipse fill="#7a6f28" stroke="black" cx="571.07" cy="-103.88" rx="102.53" ry="22.63"/>
<text text-anchor="middle" x="571.07" y="-106.38" font-family="Helvetica,sans-Serif" font-size="10.00" fill="#ffffff">budman_model.</text>
<text text-anchor="middle" x="571.07" y="-94.38" font-family="Helvetica,sans-Serif" font-size="10.00" fill="#ffffff">budget_domain_model_config</text>
</g>
<!-- budman_app&#45;&gt;budman_model_budget_domain_model_config -->
<g id="edge2" class="edge">
<title>budman_app&#45;&gt;budman_model_budget_domain_model_config</title><style>.edge>path:hover{stroke-width:8}</style>
<path fill="none" stroke="black" d="M327.85,-340.93C291.72,-319.35 227.81,-279.53 227.07,-267.39"/>
</g>
<!-- budman_model_budget_domain_model_identity -->
<g id="node6" class="node">
<title>budman_model_budget_domain_model_identity</title><style>.edge>path:hover{stroke-width:8}</style>
<ellipse fill="#ac992b" stroke="black" cx="399.07" cy="-185.14" rx="106.24" ry="22.63"/>
<text text-anchor="middle" x="399.07" y="-187.64" font-family="Helvetica,sans-Serif" font-size="10.00" fill="#000000">budman_model.</text>
<text text-anchor="middle" x="399.07" y="-175.64" font-family="Helvetica,sans-Serif" font-size="10.00" fill="#000000">budget_domain_model_identity</text>
</g>
<!-- budman_app&#45;&gt;budman_model_budget_domain_model_identity -->
<g id="edge3" class="edge">
<title>budman_app&#45;&gt;budman_model_budget_domain_model_identity</title><style>.edge>path:hover{stroke-width:8}</style>
<path fill="none" stroke="black" d="M303.07,-265.39C301.22,-241.77 318.56,-223.84 338.99,-211.07"/>
<polygon fill="#db2f2f" stroke="black" points="340.64,-214.16 347.56,-206.14 337.15,-208.09 340.64,-214.16"/>
</g>
<!-- budman_model_budget_storage_model -->
<g id="node8" class="node">
<title>budman_model_budget_storage_model</title><style>.edge>path:hover{stroke-width:8}</style>
<ellipse fill="#8f833d" stroke="black" cx="815.07" cy="-103.88" rx="80.79" ry="22.63"/>
<text text-anchor="middle" x="815.07" y="-106.38" font-family="Helvetica,sans-Serif" font-size="10.00" fill="#ffffff">budman_model.</text>
<text text-anchor="middle" x="815.07" y="-94.38" font-family="Helvetica,sans-Serif" font-size="10.00" fill="#ffffff">budget_storage_model</text>
</g>
<!-- budman_app&#45;&gt;budman_model_budget_storage_model -->
<g id="edge4" class="edge">
<title>budman_app&#45;&gt;budman_model_budget_storage_model</title><style>.edge>path:hover{stroke-width:8}</style>
<path fill="none" stroke="black" d="M303.07,-265.39C300.01,-226.45 243.11,-218.44 265.07,-186.14"/>
<path fill="none" stroke="black" d="M337.24,-338.8C323.62,-322.2 305.25,-295.05 303.07,-267.39"/>
</g>
<!-- budman_model_budget_categorization -->
<g id="node2" class="node">
<title>budman_model_budget_categorization</title><style>.edge>path:hover{stroke-width:8}</style>
<ellipse fill="#6b622e" stroke="black" cx="992.07" cy="-103.88" rx="78.67" ry="22.63"/>
<text text-anchor="middle" x="992.07" y="-106.38" font-family="Helvetica,sans-Serif" font-size="10.00" fill="#ffffff">budman_model.</text>
<text text-anchor="middle" x="992.07" y="-94.38" font-family="Helvetica,sans-Serif" font-size="10.00" fill="#ffffff">budget_categorization</text>
</g>
<!-- budman_model_budget_category_mapping -->
<g id="node3" class="node">
<title>budman_model_budget_category_mapping</title><style>.edge>path:hover{stroke-width:8}</style>
<ellipse fill="#a19135" stroke="black" cx="983.07" cy="-185.14" rx="91.92" ry="22.63"/>
<text text-anchor="middle" x="983.07" y="-187.64" font-family="Helvetica,sans-Serif" font-size="10.00" fill="#000000">budman_model.</text>
<text text-anchor="middle" x="983.07" y="-175.64" font-family="Helvetica,sans-Serif" font-size="10.00" fill="#000000">budget_category_mapping</text>
</g>
<!-- budman_model_budget_category_mapping&#45;&gt;budman_model_budget_categorization -->
<g id="edge5" class="edge">
<title>budman_model_budget_category_mapping&#45;&gt;budman_model_budget_categorization</title><style>.edge>path:hover{stroke-width:8}</style>
<path fill="none" stroke="black" d="M985.58,-162.06C986.42,-154.67 987.37,-146.27 988.29,-138.22"/>
<polygon fill="#a19135" stroke="black" points="991.76,-138.68 989.41,-128.34 984.8,-137.89 991.76,-138.68"/>
</g>
<!-- budman_model_budget_domain_model&#45;&gt;budman_model_budget_categorization -->
<g id="edge6" class="edge">
<title>budman_model_budget_domain_model&#45;&gt;budman_model_budget_categorization</title><style>.edge>path:hover{stroke-width:8}</style>
<path fill="none" stroke="black" d="M772.06,-168.29C816.61,-155.45 879.5,-137.33 926.63,-123.74"/>
<polygon fill="#938324" stroke="black" points="927.55,-127.12 936.19,-120.99 925.62,-120.39 927.55,-127.12"/>
</g>
<!-- budman_model_budget_domain_model&#45;&gt;budman_model_budget_domain_model_config -->
<g id="edge7" class="edge">
<title>budman_model_budget_domain_model&#45;&gt;budman_model_budget_domain_model_config</title><style>.edge>path:hover{stroke-width:8}</style>
<path fill="none" stroke="black" d="M680.98,-164.55C662.2,-154.35 639,-141.75 618.75,-130.77"/>
<polygon fill="#938324" stroke="black" points="620.57,-127.77 610.11,-126.08 617.23,-133.92 620.57,-127.77"/>
</g>
<!-- budman_model_get_budget_model_template -->
<g id="node9" class="node">
<title>budman_model_get_budget_model_template</title><style>.edge>path:hover{stroke-width:8}</style>
<ellipse fill="#b3a44c" stroke="black" cx="571.07" cy="-22.63" rx="97.76" ry="22.63"/>
<text text-anchor="middle" x="571.07" y="-25.13" font-family="Helvetica,sans-Serif" font-size="10.00" fill="#000000">budman_model.</text>
<text text-anchor="middle" x="571.07" y="-13.13" font-family="Helvetica,sans-Serif" font-size="10.00" fill="#000000">get_budget_model_template</text>
</g>
<!-- budman_model_budget_domain_model_config&#45;&gt;budman_model_get_budget_model_template -->
<g id="edge8" class="edge">
<title>budman_model_budget_domain_model_config&#45;&gt;budman_model_get_budget_model_template</title><style>.edge>path:hover{stroke-width:8}</style>
<path fill="none" stroke="black" d="M571.07,-80.81C571.07,-73.42 571.07,-65.01 571.07,-56.97"/>
<polygon fill="#7a6f28" stroke="black" points="574.57,-57.1 571.07,-47.1 567.57,-57.1 574.57,-57.1"/>
</g>
<!-- budman_model_budget_domain_model_identity&#45;&gt;budman_model_budget_domain_model_config -->
<g id="edge9" class="edge">
<title>budman_model_budget_domain_model_identity&#45;&gt;budman_model_budget_domain_model_config</title><style>.edge>path:hover{stroke-width:8}</style>
<path fill="none" stroke="black" d="M442.48,-164.14C465.28,-153.63 493.42,-140.66 517.56,-129.54"/>
<polygon fill="#ac992b" stroke="black" points="518.99,-132.73 526.61,-125.37 516.06,-126.38 518.99,-132.73"/>
</g>
<!-- budman_model_budget_domain_model_identity&#45;&gt;budman_model_budget_storage_model -->
<g id="edge10" class="edge">
<title>budman_model_budget_domain_model_identity&#45;&gt;budman_model_budget_storage_model</title><style>.edge>path:hover{stroke-width:8}</style>
<path fill="none" stroke="black" d="M476.83,-169.32C551.54,-155.09 663.76,-133.71 738.18,-119.53"/>
<polygon fill="#ac992b" stroke="black" points="738.68,-123 747.85,-117.69 737.37,-116.12 738.68,-123"/>
</g>
<!-- budman_model_budget_model_constants -->
<g id="node7" class="node">
<title>budman_model_budget_model_constants</title><style>.edge>path:hover{stroke-width:8}</style>
<ellipse fill="#c4af31" stroke="black" cx="1029.07" cy="-266.39" rx="88.21" ry="22.63"/>
<text text-anchor="middle" x="1029.07" y="-268.89" font-family="Helvetica,sans-Serif" font-size="10.00" fill="#000000">budman_model.</text>
<text text-anchor="middle" x="1029.07" y="-256.89" font-family="Helvetica,sans-Serif" font-size="10.00" fill="#000000">budget_model_constants</text>
</g>
<!-- budman_model_budget_model_constants&#45;&gt;budman_model_budget_categorization -->
<g id="edge11" class="edge">
<title>budman_model_budget_model_constants&#45;&gt;budman_model_budget_categorization</title><style>.edge>path:hover{stroke-width:8}</style>
<path fill="none" stroke="black" d="M1089.55,-249.68C1121.38,-237.57 1152.45,-217.47 1145.07,-186.14"/>
<path fill="none" stroke="black" d="M1145.07,-184.14C1136.97,-149.72 1103.72,-130.19 1070.29,-119.13"/>
<polygon fill="#c4af31" stroke="black" points="1071.49,-115.84 1060.91,-116.27 1069.45,-122.54 1071.49,-115.84"/>
</g>
<!-- budman_model_budget_model_constants&#45;&gt;budman_model_budget_category_mapping -->
<g id="edge12" class="edge">
<title>budman_model_budget_model_constants&#45;&gt;budman_model_budget_category_mapping</title><style>.edge>path:hover{stroke-width:8}</style>
<path fill="none" stroke="black" d="M1016.5,-243.74C1011.88,-235.76 1006.53,-226.56 1001.5,-217.88"/>
<polygon fill="#c4af31" stroke="black" points="1004.59,-216.24 996.55,-209.35 998.54,-219.76 1004.59,-216.24"/>
</g>
<!-- budman_namespace -->
<g id="node10" class="node">
<title>budman_namespace</title><style>.edge>path:hover{stroke-width:8}</style>
<ellipse fill="#60db2f" stroke="black" cx="227.07" cy="-356.13" rx="63.74" ry="18"/>
<text text-anchor="middle" x="227.07" y="-352.63" font-family="Helvetica,sans-Serif" font-size="10.00" fill="#000000">budman_namespace</text>
</g>
<!-- budman_namespace&#45;&gt;budman_model_budget_domain_model -->
<g id="edge13" class="edge">
<title>budman_namespace&#45;&gt;budman_model_budget_domain_model</title><style>.edge>path:hover{stroke-width:8}</style>
<path fill="none" stroke="black" d="M261.05,-340.54C273.28,-335.44 287.22,-329.8 300.07,-325.02 423.82,-278.95 570.81,-231.71 653.07,-205.92"/>
<polygon fill="#60db2f" stroke="black" points="654.05,-209.28 662.55,-202.96 651.97,-202.6 654.05,-209.28"/>
</g>
<!-- budman_namespace&#45;&gt;budman_model_budget_domain_model_config -->
<g id="edge14" class="edge">
<title>budman_namespace&#45;&gt;budman_model_budget_domain_model_config</title><style>.edge>path:hover{stroke-width:8}</style>
<path fill="none" stroke="black" d="M227.7,-337.63C228.19,-319.91 228.56,-291.72 227.07,-267.39"/>
</g>
<!-- budman_namespace&#45;&gt;budman_model_budget_domain_model_identity -->
<g id="edge15" class="edge">
<title>budman_namespace&#45;&gt;budman_model_budget_domain_model_identity</title><style>.edge>path:hover{stroke-width:8}</style>
<path fill="none" stroke="black" d="M265.07,-265.39C280.34,-240.2 306.9,-222.1 332.36,-209.61"/>
<polygon fill="#60db2f" stroke="black" points="333.83,-212.79 341.42,-205.4 330.88,-206.44 333.83,-212.79"/>
</g>
<!-- budman_namespace&#45;&gt;budman_model_budget_storage_model -->
<g id="edge16" class="edge">
<title>budman_namespace&#45;&gt;budman_model_budget_storage_model</title><style>.edge>path:hover{stroke-width:8}</style>
<path fill="none" stroke="black" d="M232.92,-337.97C239.47,-319.77 251.04,-290.53 265.07,-267.39"/>
<path fill="none" stroke="black" d="M265.07,-265.39C283.34,-235.27 245.26,-215.26 265.07,-186.14"/>
<path fill="none" stroke="black" d="M265.07,-184.14C272.27,-173.56 272.67,-168.3 284.07,-162.51 363.45,-122.19 594.75,-137.71 683.07,-126.51 700.54,-124.29 719.24,-121.49 736.91,-118.65"/>
<polygon fill="#60db2f" stroke="black" points="737.26,-122.14 746.56,-117.07 736.13,-115.23 737.26,-122.14"/>
</g>
<!-- openpyxl -->
<g id="node11" class="node">
<title>openpyxl</title><style>.edge>path:hover{stroke-width:8}</style>
<ellipse fill="#06f991" stroke="black" cx="135.07" cy="-445.87" rx="33.07" ry="18"/>
<text text-anchor="middle" x="135.07" y="-442.37" font-family="Helvetica,sans-Serif" font-size="10.00" fill="#000000">openpyxl</text>
</g>
<!-- openpyxl&#45;&gt;budman_model_budget_categorization -->
<g id="edge17" class="edge">
<title>openpyxl&#45;&gt;budman_model_budget_categorization</title><style>.edge>path:hover{stroke-width:8}</style>
<path fill="none" stroke="black" d="M1029.07,-355.13C1041.54,-341.35 1043.23,-336.2 1058.07,-325.02 1085.39,-304.45 1099.24,-310.21 1126.07,-289.02 1136.11,-281.09 1143.08,-280.03 1145.07,-267.39"/>
<path fill="none" stroke="black" d="M1145.07,-265.39C1150.56,-230.6 1153.15,-220.42 1145.07,-186.14"/>
</g>
<!-- openpyxl&#45;&gt;budman_model_budget_category_mapping -->
<g id="edge18" class="edge">
<title>openpyxl&#45;&gt;budman_model_budget_category_mapping</title><style>.edge>path:hover{stroke-width:8}</style>
<path fill="none" stroke="black" d="M168.38,-444.19C323.51,-440.69 970.19,-422.22 1029.07,-357.13"/>
<path fill="none" stroke="black" d="M1029.07,-355.13C1072.44,-307.19 893.51,-329 913.07,-267.39"/>
</g>
<!-- openpyxl&#45;&gt;budman_model_budget_domain_model -->
<g id="edge19" class="edge">
<title>openpyxl&#45;&gt;budman_model_budget_domain_model</title><style>.edge>path:hover{stroke-width:8}</style>
<path fill="none" stroke="black" d="M168.6,-445.51C276.39,-446.96 612.01,-446.5 699.07,-387.24 748.65,-353.5 785.22,-322.29 761.07,-267.39"/>
<path fill="none" stroke="black" d="M761.07,-265.39C755.27,-248.77 746.13,-231.55 737.69,-217.42"/>
<polygon fill="#06f991" stroke="black" points="740.74,-215.7 732.52,-209.02 734.78,-219.37 740.74,-215.7"/>
</g>
<!-- openpyxl&#45;&gt;budman_model_budget_domain_model_config -->
<g id="edge20" class="edge">
<title>openpyxl&#45;&gt;budman_model_budget_domain_model_config</title><style>.edge>path:hover{stroke-width:8}</style>
<path fill="none" stroke="black" d="M129.58,-427.84C124.54,-408.68 119.92,-377.57 135.07,-357.13"/>
</g>
<!-- openpyxl&#45;&gt;budman_model_budget_model_constants -->
<g id="edge21" class="edge">
<title>openpyxl&#45;&gt;budman_model_budget_model_constants</title><style>.edge>path:hover{stroke-width:8}</style>
<path fill="none" stroke="black" d="M1029.07,-355.13C1042.13,-340.7 1042.15,-318.82 1038.9,-300.52"/>
<polygon fill="#06f991" stroke="black" points="1042.35,-299.91 1036.79,-290.89 1035.51,-301.41 1042.35,-299.91"/>
</g>
<!-- openpyxl_cell -->
<g id="node12" class="node">
<title>openpyxl_cell</title><style>.edge>path:hover{stroke-width:8}</style>
<polygon fill="blue" stroke="black" points="1181.57,-540.5 1108.57,-540.5 1108.57,-504.5 1181.57,-504.5 1181.57,-540.5"/>
<text text-anchor="middle" x="1145.07" y="-519" font-family="Helvetica,sans-Serif" font-size="10.00" fill="white">openpyxl.cell</text>
</g>
<!-- openpyxl_cell&#45;&gt;budman_model_budget_categorization -->
<g id="edge22" class="edge">
<title>openpyxl_cell&#45;&gt;budman_model_budget_categorization</title><style>.edge>path:hover{stroke-width:8}</style>
<path fill="none" stroke="black" d="M1218.07,-355.13C1211.14,-326.46 1144.61,-270.3 1145.07,-267.39"/>
<path fill="none" stroke="black" d="M1180.07,-444.87C1189.45,-403.42 1228.06,-398.44 1218.07,-357.13"/>
</g>
<!-- openpyxl_worksheet_worksheet -->
<g id="node16" class="node">
<title>openpyxl_worksheet_worksheet</title><style>.edge>path:hover{stroke-width:8}</style>
<ellipse fill="#49ac81" stroke="black" cx="1145.07" cy="-356.13" rx="45.25" ry="31.11"/>
<text text-anchor="middle" x="1145.07" y="-364.63" font-family="Helvetica,sans-Serif" font-size="10.00" fill="#000000">openpyxl.</text>
<text text-anchor="middle" x="1145.07" y="-352.63" font-family="Helvetica,sans-Serif" font-size="10.00" fill="#000000">worksheet.</text>
<text text-anchor="middle" x="1145.07" y="-340.63" font-family="Helvetica,sans-Serif" font-size="10.00" fill="#000000">worksheet</text>
</g>
<!-- openpyxl_cell&#45;&gt;openpyxl_worksheet_worksheet -->
<g id="edge23" class="edge">
<title>openpyxl_cell&#45;&gt;openpyxl_worksheet_worksheet</title><style>.edge>path:hover{stroke-width:8}</style>
<path fill="none" stroke="black" d="M1155.84,-504.19C1164.28,-489.54 1175.37,-467.67 1180.07,-446.87"/>
<path fill="none" stroke="black" d="M1180.07,-444.87C1183.99,-427.55 1178.34,-409.19 1170.5,-393.76"/>
<polygon fill="blue" stroke="black" points="1173.77,-392.44 1165.85,-385.41 1167.66,-395.85 1173.77,-392.44"/>
</g>
<!-- openpyxl_cell_cell -->
<g id="node13" class="node">
<title>openpyxl_cell_cell</title><style>.edge>path:hover{stroke-width:8}</style>
<polygon fill="blue" stroke="black" points="1174.07,-620.5 1116.07,-620.5 1116.07,-576.5 1174.07,-576.5 1174.07,-620.5"/>
<text text-anchor="middle" x="1145.07" y="-607" font-family="Helvetica,sans-Serif" font-size="10.00" fill="white">openpyxl.</text>
<text text-anchor="middle" x="1145.07" y="-595" font-family="Helvetica,sans-Serif" font-size="10.00" fill="white">cell.</text>
<text text-anchor="middle" x="1145.07" y="-583" font-family="Helvetica,sans-Serif" font-size="10.00" fill="white">cell</text>
</g>
<!-- openpyxl_cell_cell&#45;&gt;budman_model_budget_categorization -->
<g id="edge24" class="edge">
<title>openpyxl_cell_cell&#45;&gt;budman_model_budget_categorization</title><style>.edge>path:hover{stroke-width:8}</style>
<path fill="none" stroke="black" d="M1166.94,-576.07C1175.84,-566.09 1185.36,-553.55 1191.07,-540.5 1224.1,-465.04 1237.42,-437.2 1218.07,-357.13"/>
</g>
<!-- openpyxl_cell_cell&#45;&gt;openpyxl_cell -->
<g id="edge25" class="edge">
<title>openpyxl_cell_cell&#45;&gt;openpyxl_cell</title><style>.edge>path:hover{stroke-width:8}</style>
<path fill="none" stroke="black" d="M1145.07,-576.1C1145.07,-568.61 1145.07,-560.09 1145.07,-552.11"/>
<polygon fill="blue" stroke="black" points="1148.57,-552.15 1145.07,-542.15 1141.57,-552.15 1148.57,-552.15"/>
</g>
<!-- openpyxl_Workbook -->
<g id="node14" class="node">
<title>openpyxl_Workbook</title><style>.edge>path:hover{stroke-width:8}</style>
<ellipse fill="#22e793" stroke="black" cx="42.07" cy="-445.87" rx="42.07" ry="22.63"/>
<text text-anchor="middle" x="42.07" y="-448.37" font-family="Helvetica,sans-Serif" font-size="10.00" fill="#000000">openpyxl.</text>
<text text-anchor="middle" x="42.07" y="-436.37" font-family="Helvetica,sans-Serif" font-size="10.00" fill="#000000">Workbook</text>
</g>
<!-- openpyxl_Workbook&#45;&gt;budman_model_budget_categorization -->
<g id="edge26" class="edge">
<title>openpyxl_Workbook&#45;&gt;budman_model_budget_categorization</title><style>.edge>path:hover{stroke-width:8}</style>
<path fill="none" stroke="black" d="M913.07,-355.13C928.1,-342.58 851.08,-201.62 863.07,-186.14"/>
<path fill="none" stroke="black" d="M72.5,-429.91C79.14,-427.23 86.23,-424.8 93.07,-423.24 260.75,-385.08 702.21,-439.4 866.07,-387.24 889.71,-379.72 893.73,-372.66 913.07,-357.13"/>
</g>
<!-- openpyxl_Workbook&#45;&gt;budman_model_budget_category_mapping -->
<g id="edge27" class="edge">
<title>openpyxl_Workbook&#45;&gt;budman_model_budget_category_mapping</title><style>.edge>path:hover{stroke-width:8}</style>
<path fill="none" stroke="black" d="M913.07,-355.13C943.01,-330.14 901.27,-304.56 913.07,-267.39"/>
</g>
<!-- openpyxl_Workbook&#45;&gt;budman_model_budget_domain_model -->
<g id="edge28" class="edge">
<title>openpyxl_Workbook&#45;&gt;budman_model_budget_domain_model</title><style>.edge>path:hover{stroke-width:8}</style>
<path fill="none" stroke="black" d="M72.8,-429.9C79.36,-427.26 86.34,-424.85 93.07,-423.24 209.63,-395.47 533.33,-456.55 631.07,-387.24 686.5,-347.95 706.46,-265.34 713.45,-219.16"/>
<polygon fill="#22e793" stroke="black" points="716.89,-219.87 714.79,-209.48 709.95,-218.91 716.89,-219.87"/>
</g>
<!-- openpyxl_Workbook&#45;&gt;budman_model_budget_domain_model_config -->
<g id="edge29" class="edge">
<title>openpyxl_Workbook&#45;&gt;budman_model_budget_domain_model_config</title><style>.edge>path:hover{stroke-width:8}</style>
<path fill="none" stroke="black" d="M227.07,-184.14C242.77,-139.17 366.22,-119.59 460.79,-111.15"/>
<polygon fill="#22e793" stroke="black" points="460.99,-114.64 470.66,-110.3 460.4,-107.67 460.99,-114.64"/>
<path fill="none" stroke="black" d="M135.07,-355.13C144.5,-342.42 143.49,-336.78 154.07,-325.02 181.72,-294.29 229.59,-308.65 227.07,-267.39"/>
<path fill="none" stroke="black" d="M227.07,-265.39C224.93,-230.23 215.46,-219.39 227.07,-186.14"/>
<path fill="none" stroke="black" d="M65.3,-426.94C85.58,-410.43 114.85,-384.41 135.07,-357.13"/>
</g>
<!-- openpyxl_Workbook&#45;&gt;budman_model_budget_model_constants -->
<g id="edge30" class="edge">
<title>openpyxl_Workbook&#45;&gt;budman_model_budget_model_constants</title><style>.edge>path:hover{stroke-width:8}</style>
<path fill="none" stroke="black" d="M913.07,-355.13C938.46,-333.94 968.22,-311.47 991.25,-294.57"/>
<polygon fill="#22e793" stroke="black" points="993.12,-297.54 999.13,-288.82 988.99,-291.89 993.12,-297.54"/>
</g>
<!-- openpyxl_worksheet -->
<g id="node15" class="node">
<title>openpyxl_worksheet</title><style>.edge>path:hover{stroke-width:8}</style>
<ellipse fill="#47c28d" stroke="black" cx="1072.07" cy="-716.13" rx="43.13" ry="22.63"/>
<text text-anchor="middle" x="1072.07" y="-718.63" font-family="Helvetica,sans-Serif" font-size="10.00" fill="#000000">openpyxl.</text>
<text text-anchor="middle" x="1072.07" y="-706.63" font-family="Helvetica,sans-Serif" font-size="10.00" fill="#000000">worksheet</text>
</g>
<!-- openpyxl_worksheet&#45;&gt;budman_model_budget_categorization -->
<g id="edge31" class="edge">
<title>openpyxl_worksheet&#45;&gt;budman_model_budget_categorization</title><style>.edge>path:hover{stroke-width:8}</style>
<path fill="none" stroke="black" d="M1069.26,-693.11C1068.56,-682.2 1068.8,-668.95 1072.07,-657.5"/>
<path fill="none" stroke="black" d="M1072.07,-656.5C1088.35,-599.67 1072.07,-582.61 1072.07,-523.5 1072.07,-523.5 1072.07,-523.5 1072.07,-444.87 1072.07,-390.94 1066.92,-373.24 1091.07,-325.02 1106.79,-293.64 1139.61,-302.06 1145.07,-267.39"/>
</g>
<!-- openpyxl_worksheet&#45;&gt;openpyxl_cell_cell -->
<g id="edge32" class="edge">
<title>openpyxl_worksheet&#45;&gt;openpyxl_cell_cell</title><style>.edge>path:hover{stroke-width:8}</style>
<path fill="none" stroke="black" d="M1072.07,-656.5C1077.01,-639.25 1091.51,-626.21 1106.3,-616.99"/>
<polygon fill="#47c28d" stroke="black" points="1107.7,-620.22 1114.64,-612.22 1104.22,-614.14 1107.7,-620.22"/>
</g>
<!-- openpyxl_worksheet_worksheet&#45;&gt;budman_model_budget_categorization -->
<g id="edge33" class="edge">
<title>openpyxl_worksheet_worksheet&#45;&gt;budman_model_budget_categorization</title><style>.edge>path:hover{stroke-width:8}</style>
<path fill="none" stroke="black" d="M1142.76,-324.9C1142.04,-307.9 1142.09,-286.35 1145.07,-267.39"/>
</g>
<!-- p3_utils -->
<g id="node17" class="node">
<title>p3_utils</title><style>.edge>path:hover{stroke-width:8}</style>
<ellipse fill="#1694f3" stroke="black" cx="592.07" cy="-356.13" rx="29.92" ry="18"/>
<text text-anchor="middle" x="592.07" y="-352.63" font-family="Helvetica,sans-Serif" font-size="10.00" fill="#ffffff">p3_utils</text>
</g>
<!-- p3_utils&#45;&gt;budman_model_budget_categorization -->
<g id="edge34" class="edge">
<title>p3_utils&#45;&gt;budman_model_budget_categorization</title><style>.edge>path:hover{stroke-width:8}</style>
<path fill="none" stroke="black" d="M799.07,-265.39C819,-254.65 849.21,-204.03 863.07,-186.14"/>
<path fill="none" stroke="black" d="M863.07,-184.14C870.91,-174.02 872.01,-170.42 882.07,-162.51 899.09,-149.13 919.68,-137.38 938.42,-128.04"/>
<polygon fill="#1694f3" stroke="black" points="939.77,-131.28 947.25,-123.77 936.72,-124.98 939.77,-131.28"/>
<path fill="none" stroke="black" d="M619.89,-348.67C657.09,-339.26 724.23,-319.5 775.07,-289.02 787.39,-281.64 786.43,-274.21 799.07,-267.39"/>
</g>
<!-- p3_utils&#45;&gt;budman_model_budget_category_mapping -->
<g id="edge35" class="edge">
<title>p3_utils&#45;&gt;budman_model_budget_category_mapping</title><style>.edge>path:hover{stroke-width:8}</style>
<path fill="none" stroke="black" d="M799.07,-265.39C811.71,-258.58 810.75,-251.14 823.07,-243.76 850.03,-227.62 882.21,-214.94 910.63,-205.64"/>
<polygon fill="#1694f3" stroke="black" points="911.41,-209.06 919.88,-202.7 909.29,-202.39 911.41,-209.06"/>
</g>
<!-- p3_utils&#45;&gt;budman_model_budget_domain_model -->
<g id="edge36" class="edge">
<title>p3_utils&#45;&gt;budman_model_budget_domain_model</title><style>.edge>path:hover{stroke-width:8}</style>
<path fill="none" stroke="black" d="M647.07,-265.39C654.66,-245.95 669.32,-228.15 683.26,-214.36"/>
<polygon fill="#1694f3" stroke="black" points="685.37,-217.18 690.23,-207.76 680.56,-212.09 685.37,-217.18"/>
</g>
<!-- p3_utils&#45;&gt;budman_model_budget_domain_model_config -->
<g id="edge37" class="edge">
<title>p3_utils&#45;&gt;budman_model_budget_domain_model_config</title><style>.edge>path:hover{stroke-width:8}</style>
<path fill="none" stroke="black" d="M590.63,-337.93C587.17,-296.76 578.38,-191.99 573.86,-138.06"/>
<polygon fill="#1694f3" stroke="black" points="577.36,-137.93 573.03,-128.26 570.38,-138.52 577.36,-137.93"/>
</g>
<!-- p3_utils&#45;&gt;budman_model_budget_domain_model_identity -->
<g id="edge38" class="edge">
<title>p3_utils&#45;&gt;budman_model_budget_domain_model_identity</title><style>.edge>path:hover{stroke-width:8}</style>
<path fill="none" stroke="black" d="M574.5,-341.31C554.16,-324.88 520.26,-296.04 495.07,-267.39"/>
</g>
<!-- p3_utils&#45;&gt;budman_model_budget_storage_model -->
<g id="edge39" class="edge">
<title>p3_utils&#45;&gt;budman_model_budget_storage_model</title><style>.edge>path:hover{stroke-width:8}</style>
<path fill="none" stroke="black" d="M604.59,-339.3C617.27,-322.45 636.48,-294.52 647.07,-267.39"/>
<path fill="none" stroke="black" d="M647.07,-265.39C656.88,-240.27 632.35,-234.39 628.07,-207.76 624.88,-187.91 616.13,-178.69 628.07,-162.51 641.59,-144.2 692.16,-129.28 737.31,-119.21"/>
<polygon fill="#1694f3" stroke="black" points="737.83,-122.67 746.86,-117.13 736.35,-115.83 737.83,-122.67"/>
</g>
<!-- p3logging -->
<g id="node18" class="node">
<title>p3logging</title><style>.edge>path:hover{stroke-width:8}</style>
<ellipse fill="#5516f3" stroke="black" cx="823.07" cy="-356.13" rx="34.43" ry="18"/>
<text text-anchor="middle" x="823.07" y="-352.63" font-family="Helvetica,sans-Serif" font-size="10.00" fill="#ffffff">p3logging</text>
</g>
<!-- p3logging&#45;&gt;budman_model_budget_categorization -->
<g id="edge40" class="edge">
<title>p3logging&#45;&gt;budman_model_budget_categorization</title><style>.edge>path:hover{stroke-width:8}</style>
<path fill="none" stroke="black" d="M837.07,-265.39C841.52,-228.59 840.37,-215.44 863.07,-186.14"/>
</g>
<!-- p3logging&#45;&gt;budman_model_budget_category_mapping -->
<g id="edge41" class="edge">
<title>p3logging&#45;&gt;budman_model_budget_category_mapping</title><style>.edge>path:hover{stroke-width:8}</style>
<path fill="none" stroke="black" d="M913.07,-265.39C919.3,-245.79 933.47,-228.17 947.46,-214.55"/>
<polygon fill="#5516f3" stroke="black" points="949.53,-217.4 954.49,-208.03 944.78,-212.26 949.53,-217.4"/>
<path fill="none" stroke="black" d="M845.81,-342.23C868.77,-327.59 902.31,-301.29 913.07,-267.39"/>
</g>
<!-- p3logging&#45;&gt;budman_model_budget_domain_model -->
<g id="edge42" class="edge">
<title>p3logging&#45;&gt;budman_model_budget_domain_model</title><style>.edge>path:hover{stroke-width:8}</style>
<path fill="none" stroke="black" d="M809.06,-339.52C794.84,-322.84 773.24,-295.05 761.07,-267.39"/>
</g>
<!-- p3logging&#45;&gt;budman_model_budget_domain_model_config -->
<g id="edge43" class="edge">
<title>p3logging&#45;&gt;budman_model_budget_domain_model_config</title><style>.edge>path:hover{stroke-width:8}</style>
<path fill="none" stroke="black" d="M825.07,-184.14C818.03,-173.45 817.01,-169.15 806.07,-162.51 766.42,-138.46 717.27,-124.44 674.19,-116.26"/>
<polygon fill="#5516f3" stroke="black" points="675.03,-112.86 664.57,-114.53 673.79,-119.75 675.03,-112.86"/>
<path fill="none" stroke="black" d="M837.07,-265.39C841.35,-230.02 844.68,-215.88 825.07,-186.14"/>
<path fill="none" stroke="black" d="M826.19,-338.04C829.32,-320.39 834.09,-292.05 837.07,-267.39"/>
</g>
<!-- p3logging&#45;&gt;budman_model_budget_domain_model_identity -->
<g id="edge44" class="edge">
<title>p3logging&#45;&gt;budman_model_budget_domain_model_identity</title><style>.edge>path:hover{stroke-width:8}</style>
<path fill="none" stroke="black" d="M806.42,-340.37C778.44,-316.37 719.31,-269.03 661.07,-243.76 610.43,-221.79 550.51,-207.81 500.77,-199.13"/>
<polygon fill="#5516f3" stroke="black" points="501.6,-195.72 491.16,-197.51 500.43,-202.63 501.6,-195.72"/>
</g>
<!-- p3logging&#45;&gt;budman_model_budget_storage_model -->
<g id="edge45" class="edge">
<title>p3logging&#45;&gt;budman_model_budget_storage_model</title><style>.edge>path:hover{stroke-width:8}</style>
<path fill="none" stroke="black" d="M825.07,-184.14C816.28,-170.8 813.38,-153.41 812.84,-138.33"/>
<polygon fill="#5516f3" stroke="black" points="816.34,-138.36 812.85,-128.36 809.34,-138.35 816.34,-138.36"/>
</g>
<!-- pyjson5 -->
<g id="node19" class="node">
<title>pyjson5</title><style>.edge>path:hover{stroke-width:8}</style>
<ellipse fill="#db2fc2" stroke="black" cx="514.07" cy="-356.13" rx="29.92" ry="18"/>
<text text-anchor="middle" x="514.07" y="-352.63" font-family="Helvetica,sans-Serif" font-size="10.00" fill="#ffffff">pyjson5</text>
</g>
<!-- pyjson5&#45;&gt;budman_model_budget_domain_model -->
<g id="edge46" class="edge">
<title>pyjson5&#45;&gt;budman_model_budget_domain_model</title><style>.edge>path:hover{stroke-width:8}</style>
<path fill="none" stroke="black" d="M527.47,-339.6C544.69,-320.42 576.32,-287.85 609.07,-267.39"/>
</g>
<!-- pyjson5&#45;&gt;budman_model_budget_domain_model_config -->
<g id="edge47" class="edge">
<title>pyjson5&#45;&gt;budman_model_budget_domain_model_config</title><style>.edge>path:hover{stroke-width:8}</style>
<path fill="none" stroke="black" d="M492.85,-343C456.81,-322.42 381.3,-279.43 317.07,-243.76 275.55,-220.7 210.18,-230.53 227.07,-186.14"/>
</g>
<!-- pyjson5&#45;&gt;budman_model_budget_domain_model_identity -->
<g id="edge48" class="edge">
<title>pyjson5&#45;&gt;budman_model_budget_domain_model_identity</title><style>.edge>path:hover{stroke-width:8}</style>
<path fill="none" stroke="black" d="M515.01,-337.78C515.11,-318.32 512.26,-286.94 495.07,-267.39"/>
<path fill="none" stroke="black" d="M495.07,-265.39C478.35,-246.37 456.82,-228.15 438.39,-213.99"/>
<polygon fill="#db2fc2" stroke="black" points="440.65,-211.31 430.56,-208.09 436.43,-216.9 440.65,-211.31"/>
</g>
<!-- pyjson5&#45;&gt;budman_model_budget_storage_model -->
<g id="edge49" class="edge">
<title>pyjson5&#45;&gt;budman_model_budget_storage_model</title><style>.edge>path:hover{stroke-width:8}</style>
<path fill="none" stroke="black" d="M518.42,-338.09C528.89,-300.54 559.13,-210.19 618.07,-162.51 649.59,-137.01 692,-122.8 729.4,-114.87"/>
<polygon fill="#db2fc2" stroke="black" points="729.71,-118.38 738.83,-113 728.34,-111.51 729.71,-118.38"/>
</g>
</g>
</svg>
